<svg xmlns="http://www.w3.org/2000/svg" viewBox="0 0 158.000000 229.000000" fill="currentColor"><g transform="translate(0.000000,229.000000) scale(0.100000,-0.100000)"
fill="currentColor" stroke="none">
<path d="M992 2157 c-13 -7 -33 -28 -45 -47 -12 -19 -30 -45 -39 -59 -20 -30
-38 -68 -38 -82 0 -5 -7 -9 -15 -9 -10 0 -15 -10 -15 -30 0 -17 -9 -48 -20
-70 -18 -35 -23 -38 -52 -34 -57 7 -412 34 -457 34 -34 0 -49 -6 -72 -29 -25
-26 -29 -37 -29 -85 0 -51 -2 -56 -25 -62 -48 -12 -65 -48 -65 -136 0 -92 9
-115 55 -134 51 -21 1049 -21 1100 0 46 19 55 42 55 133 0 86 -13 117 -56 133
-17 7 -24 17 -24 35 0 14 -10 36 -23 49 -25 25 -53 31 -199 42 -49 3 -88 10
-88 15 0 5 7 9 15 9 9 0 20 11 25 25 5 14 14 25 20 25 5 0 10 9 10 19 0 10 6
21 14 24 9 3 12 14 9 25 -3 12 1 22 11 25 9 4 16 16 16 27 0 11 6 20 13 20 7
0 80 -43 162 -96 162 -104 182 -109 210 -54 24 46 19 67 -22 93 -79 49 -380
207 -394 207 -8 -1 -24 -6 -37 -13z m226 -108 c92 -51 168 -93 170 -94 1 -1
-5 -18 -15 -36 -10 -19 -19 -35 -20 -37 -1 -2 -62 35 -137 83 -85 55 -142 85
-152 81 -8 -3 -28 1 -43 9 -42 21 -46 6 -9 -28 33 -30 33 -30 10 -40 -12 -6
-22 -19 -22 -29 0 -18 -1 -19 -30 -2 -42 25 -51 8 -11 -23 42 -33 23 -49 -25
-21 -27 16 -34 17 -34 6 0 -8 11 -21 25 -28 14 -7 25 -20 25 -28 0 -10 -8 -9
-34 8 -40 24 -60 10 -22 -15 36 -24 24 -41 -24 -37 -22 2 -40 6 -40 8 0 3 9
22 20 44 11 22 20 46 20 55 0 8 5 15 10 15 6 0 10 8 10 18 0 9 7 25 14 35 12
15 18 16 35 8 11 -6 24 -11 30 -11 20 0 11 20 -14 32 -28 12 -33 36 -10 44 8
3 23 21 34 40 15 25 27 34 46 34 14 0 101 -41 193 -91z m212 -142 c0 -13 -9
-32 -20 -42 -18 -17 -20 -17 -26 -1 -4 10 -2 28 4 42 15 31 42 32 42 1z"/>
<path d="M675 1299 c-126 -21 -235 -78 -331 -173 -113 -113 -164 -241 -164
-411 0 -169 50 -295 164 -410 170 -172 440 -230 681 -147 86 30 203 104 231
146 14 23 12 26 -51 86 -103 99 -100 98 -143 58 -78 -73 -165 -103 -276 -96
-211 14 -346 172 -334 391 6 107 38 177 114 246 130 119 336 122 485 7 l57
-44 83 79 84 79 -55 51 c-128 118 -342 172 -545 138z"/>
<path d="M739 985 c-90 -33 -138 -86 -109 -120 17 -20 32 -19 81 7 116 60 234
-8 232 -133 -2 -159 -212 -217 -304 -83 -32 47 -57 55 -83 28 -20 -20 -20 -22
4 -86 44 -117 139 -182 265 -182 124 0 209 56 263 173 21 46 24 63 20 135 -5
93 -21 131 -81 194 -70 72 -195 102 -288 67z"/>
</g></svg>
